<svg width="31" height="30" viewBox="0 0 31 30" fill="none" xmlns="http://www.w3.org/2000/svg">
    <g clip-path="url(#clip0_4_72)">
        <path d="M21.9919 21.1735C21.6696 21.1389 21.3814 21.3722 21.3471 21.6939L20.5859 28.8281H10.0808L9.32988 21.7898C9.29554 21.468 9.00697 21.2347 8.68511 21.2694C8.36331 21.3037 8.13034 21.5924 8.16468 21.9141L8.97146 29.4762C9.00322 29.7741 9.25452 30 9.55406 30H21.1127C21.4123 30 21.6636 29.7741 21.6953 29.4762L22.5124 21.8183C22.5466 21.4965 22.3136 21.2078 21.9919 21.1735Z" fill="#D8D8D8"/>
        <path d="M24.7079 4.17715H23.3968L22.3646 1.63951C22.2748 1.41873 22.0602 1.27436 21.8219 1.27436H18.2269L17.2202 0.187734C17.1093 0.0680273 16.9535 0 16.7903 0H13.8763C13.7132 0 13.5574 0.0680273 13.4466 0.187734L12.4398 1.27436H8.84484C8.60648 1.27436 8.39191 1.41873 8.30208 1.63951L7.26984 4.17715H5.9588C5.63519 4.17715 5.37286 4.43947 5.37286 4.76309V7.28104C5.37286 7.60465 5.63519 7.86697 5.9588 7.86697H6.66591L7.4015 14.7616C7.43583 15.0834 7.72441 15.3166 8.04626 15.2821C8.36806 15.2477 8.60103 14.959 8.56669 14.6373L7.84435 7.86697H22.8222L22.0975 14.6598C22.0631 14.9816 22.2961 15.2702 22.6179 15.3046C22.639 15.3069 22.66 15.308 22.6808 15.308C22.9764 15.308 23.2306 15.0848 23.2626 14.7841L24.0006 7.86697H24.7077C25.0314 7.86697 25.2937 7.60465 25.2937 7.28104V4.76309C25.2938 4.43947 25.0315 4.17715 24.7079 4.17715ZM9.239 2.44623H12.6957C12.8589 2.44623 13.0146 2.3782 13.1255 2.2585L14.1322 1.17188H16.5344L17.5412 2.2585C17.6521 2.37814 17.8079 2.44623 17.971 2.44623H21.4277L22.1317 4.17715H8.53493L9.239 2.44623ZM24.1219 6.6951H6.54474V5.34902H24.1219V6.6951Z" fill="#D8D8D8"/>
        <path d="M6.36344 12.8271L7.5318 23.7779H23.1348L24.3032 12.8271H6.36344ZM15.3333 20.5038C14.1425 20.5038 13.1771 19.5384 13.1771 18.3475C13.1771 17.1567 14.1425 16.1913 15.3333 16.1913C16.5242 16.1913 17.4896 17.1567 17.4896 18.3475C17.4896 19.5384 16.5242 20.5038 15.3333 20.5038Z" fill="#D8D8D8"/>
        <path d="M15.3333 21.0897C13.8212 21.0897 12.5911 19.8596 12.5911 18.3475C12.5911 16.8355 13.8212 15.6053 15.3333 15.6053C16.8454 15.6053 18.0755 16.8355 18.0755 18.3475C18.0755 19.8596 16.8454 21.0897 15.3333 21.0897ZM15.3333 16.7773C14.4675 16.7773 13.763 17.4817 13.763 18.3476C13.763 19.2135 14.4674 19.9179 15.3333 19.9179C16.1992 19.9179 16.9036 19.2135 16.9036 18.3476C16.9036 17.4817 16.1992 16.7773 15.3333 16.7773Z" fill="#D8D8D8"/>
    </g>
    <defs>
        <clipPath id="clip0_4_72">
            <rect width="30" height="30" fill="white" transform="translate(0.333328)"/>
        </clipPath>
    </defs>
</svg>
